<svg width="24" height="24" viewBox="0 0 24 24" fill="none" xmlns="http://www.w3.org/2000/svg">
<g clip-path="url(#clip0_10068_25178)">
<path fill-rule="evenodd" clip-rule="evenodd" d="M10.2595 17.2175C10.3022 18.3184 10.6013 19.354 11.0988 20.2661C10.511 20.495 9.89434 20.6686 9.25462 20.7802L8.94987 20.8334L8.64516 20.7802C4.01241 19.9726 0.587891 15.9066 0.587891 11.2014V4.4398L8.94987 0.855469L17.3119 4.4398V9.98902C17.2777 9.9885 17.2435 9.98827 17.2093 9.98827C15.9527 9.98827 14.7735 10.3222 13.7557 10.9061V9.9462C13.7557 9.60337 13.4766 9.32276 13.1323 9.32276H4.76888C4.42464 9.32276 4.14403 9.60337 4.14403 9.9462V16.5942C4.14403 16.9384 4.42464 17.2175 4.76888 17.2175H10.2595ZM10.8021 8.45057H12.3657V7.4173C12.3657 5.53834 10.8295 4.00079 8.95062 4.00079C7.07166 4.00079 5.53406 5.53834 5.53406 7.4173V8.45057H7.09914V7.4173C7.09914 6.40046 7.93518 5.56441 8.95062 5.56441C9.96601 5.56441 10.8021 6.40046 10.8021 7.4173V8.45057ZM8.95062 10.898C9.62177 10.898 10.1656 11.4433 10.1656 12.1144C10.1656 12.5527 9.93566 12.936 9.5885 13.1501V15.0045C9.5885 15.356 9.30064 15.6424 8.95062 15.6424C8.59914 15.6424 8.31274 15.356 8.31274 15.0045V13.1501C7.96558 12.936 7.73415 12.5527 7.73415 12.1144C7.73415 11.4433 8.27947 10.898 8.95062 10.898ZM17.2093 10.7412C20.6323 10.7412 23.4114 13.5203 23.4114 16.9434C23.4114 20.3664 20.6323 23.1455 17.2093 23.1455C13.7861 23.1455 11.0071 20.3664 11.0071 16.9434C11.0071 13.5203 13.7861 10.7412 17.2093 10.7412ZM17.2093 16.488C18.196 16.488 18.9996 15.6835 18.9996 14.6977C18.9996 13.7119 18.196 12.9074 17.2093 12.9074C16.2235 12.9074 15.4199 13.7119 15.4199 14.6977C15.4199 15.6835 16.2235 16.488 17.2093 16.488ZM13.6891 20.1181H20.7294C20.5396 18.3419 19.0364 16.9586 17.2093 16.9586C15.383 16.9586 13.8798 18.3419 13.6891 20.1181Z" fill="white"/>
</g>
<defs>
<clipPath id="clip0_10068_25178">
<rect width="24" height="24" fill="white"/>
</clipPath>
</defs>
</svg>
