<svg width="24" height="24" viewBox="0 0 24 24" fill="none" xmlns="http://www.w3.org/2000/svg">
<g clip-path="url(#clip0_10011_30416)">
<path d="M7.5 15.75C10.1924 15.75 12.375 13.5674 12.375 10.875C12.375 8.18261 10.1924 6 7.5 6C4.80761 6 2.625 8.18261 2.625 10.875C2.625 13.5674 4.80761 15.75 7.5 15.75Z" fill="#4B4B4B"/>
<path d="M14.25 19.5002V20.2502C14.25 21.0459 13.9339 21.8089 13.3713 22.3716C12.8087 22.9342 12.0456 23.2502 11.25 23.2502H3.75C2.95435 23.2502 2.19129 22.9342 1.62868 22.3716C1.06607 21.8089 0.75 21.0459 0.75 20.2502V19.5002C0.749722 18.547 1.00935 17.6117 1.50095 16.7951C1.99254 15.9784 2.69751 15.3112 3.54 14.8652C4.5919 15.9124 6.01574 16.5003 7.5 16.5003C8.98426 16.5003 10.4081 15.9124 11.46 14.8652C12.3025 15.3112 13.0075 15.9784 13.4991 16.7951C13.9907 17.6117 14.2503 18.547 14.25 19.5002Z" fill="#4B4B4B"/>
<path d="M17.25 0.750002C15.6683 0.751702 14.1511 1.3772 13.0277 2.49071C11.9044 3.60422 11.2656 5.11587 11.25 6.6975C11.8417 7.22036 12.3151 7.86347 12.6384 8.58387C12.9617 9.30427 13.1276 10.0854 13.125 10.875C13.1262 10.9451 13.1237 11.0152 13.1175 11.085C13.8269 11.7613 14.6913 12.2533 15.6349 12.5181C16.5786 12.7829 17.5728 12.8122 18.5304 12.6037C19.4881 12.3951 20.38 11.9549 21.128 11.3217C21.8761 10.6885 22.4576 9.88152 22.8215 8.97148C23.1853 8.06143 23.3206 7.07606 23.2153 6.10162C23.1101 5.12719 22.7675 4.19342 22.2177 3.38208C21.6679 2.57073 20.9275 1.90655 20.0615 1.44768C19.1954 0.988819 18.2301 0.749267 17.25 0.750002ZM17.25 10.125C17.1017 10.125 16.9567 10.081 16.8333 9.9986C16.71 9.91619 16.6139 9.79906 16.5571 9.66201C16.5003 9.52497 16.4855 9.37417 16.5144 9.22868C16.5433 9.0832 16.6148 8.94956 16.7197 8.84467C16.8246 8.73978 16.9582 8.66835 17.1037 8.63941C17.2492 8.61047 17.4 8.62533 17.537 8.68209C17.6741 8.73886 17.7912 8.83499 17.8736 8.95832C17.956 9.08166 18 9.22667 18 9.375C18 9.57391 17.921 9.76468 17.7803 9.90533C17.6397 10.046 17.4489 10.125 17.25 10.125ZM18 7.125C18 7.32391 17.921 7.51468 17.7803 7.65533C17.6397 7.79598 17.4489 7.875 17.25 7.875C17.0511 7.875 16.8603 7.79598 16.7197 7.65533C16.579 7.51468 16.5 7.32391 16.5 7.125V4.125C16.5 3.92609 16.579 3.73532 16.7197 3.59467C16.8603 3.45402 17.0511 3.375 17.25 3.375C17.4489 3.375 17.6397 3.45402 17.7803 3.59467C17.921 3.73532 18 3.92609 18 4.125V7.125Z" fill="#4B4B4B"/>
</g>
<defs>
<clipPath id="clip0_10011_30416">
<rect width="24" height="24" fill="white"/>
</clipPath>
</defs>
</svg>
