<svg width="24" height="24" viewBox="0 0 24 24" fill="none" xmlns="http://www.w3.org/2000/svg">
<g clip-path="url(#clip0_6234_6398)">
<path d="M9.73032 14.3846H6.20639V10.3264C6.20639 10.0877 6.04529 9.87908 5.81441 9.81862C5.58353 9.7583 5.34088 9.86118 5.22399 10.0693L1.07603 17.453C0.984771 17.6155 0.986505 17.8142 1.08062 17.9751C1.17474 18.1359 1.34708 18.2348 1.53348 18.2349L5.1437 18.2361V22.2945C5.1437 22.534 5.30592 22.7432 5.53797 22.8028C5.58147 22.814 5.62529 22.8194 5.6686 22.8194C5.85655 22.8194 6.03456 22.718 6.1284 22.5474L10.1902 15.1624C10.2796 14.9998 10.2765 14.802 10.1821 14.6423C10.0877 14.4826 9.91593 14.3846 9.73032 14.3846Z" fill="#4B4B4B"/>
<path d="M1.64467 13.5702L3.9982 9.38069C4.33951 8.77301 4.98463 8.39543 5.68173 8.39543C5.84625 8.39543 6.01048 8.41652 6.16989 8.45814C7.01964 8.68059 7.6126 9.44874 7.6126 10.3264V12.9785H9.73047C10.4099 12.9785 11.0468 13.3418 11.3926 13.9266C11.4783 14.0716 11.5434 14.2257 11.5879 14.3845H12.406L13.94 11.3742C14.5834 10.1115 15.8634 9.32711 17.2806 9.32711C18.6978 9.32711 19.9779 10.1115 20.6213 11.3742L21.893 13.8698C23.148 13.1705 23.999 11.8299 23.999 10.294C23.999 9.21195 23.5804 8.19192 22.8204 7.42184C22.2146 6.80803 21.4473 6.40888 20.6131 6.26471C20.3025 4.21639 18.5297 2.64146 16.3961 2.64146C15.5927 2.64146 14.8252 2.86133 14.1601 3.27285C13.6783 2.27451 12.9212 1.44735 12 0.874081C11.1051 0.317358 10.0551 0 8.95055 0C5.76291 0 3.16954 2.59337 3.16954 5.78101C3.16954 5.95551 3.17741 6.12996 3.19302 6.30347C2.4258 6.47478 1.72308 6.86479 1.16265 7.43932C0.413528 8.20729 0.000976562 9.22114 0.000976562 10.2941C0.000976562 11.6329 0.647503 12.8235 1.64467 13.5702Z" fill="#4B4B4B"/>
<path d="M19.3683 12.0128C18.9661 11.2236 18.1661 10.7334 17.2804 10.7334C16.3947 10.7334 15.5947 11.2236 15.1925 12.0128L10.8203 20.5929C10.4472 21.325 10.4808 22.1804 10.9101 22.8811C11.3395 23.5818 12.0864 24.0001 12.9081 24.0001H21.6527C22.4745 24.0001 23.2214 23.5818 23.6507 22.8811C24.0801 22.1804 24.1136 21.325 23.7405 20.5929L19.3683 12.0128ZM16.5113 15.4098C16.5113 15.0215 16.8261 14.7068 17.2144 14.7068C17.6027 14.7068 17.9174 15.0215 17.9174 15.4098V18.1579C17.9174 18.5461 17.6027 18.8609 17.2144 18.8609C16.8261 18.8609 16.5113 18.5461 16.5113 18.1579V15.4098ZM17.2143 21.6265C16.6943 21.6353 16.3405 21.0469 16.5947 20.5926C16.8637 20.0726 17.6459 20.1108 17.8634 20.6545C18.0617 21.1007 17.702 21.6377 17.2143 21.6265Z" fill="#4B4B4B"/>
</g>
<defs>
<clipPath id="clip0_6234_6398">
<rect width="24" height="24" fill="white"/>
</clipPath>
</defs>
</svg>
