<svg width="24" height="24" viewBox="0 0 24 24" fill="none" xmlns="http://www.w3.org/2000/svg">
<path d="M4.875 21H16.125C16.4234 21 16.7095 20.8815 16.9205 20.6705C17.1315 20.4595 17.25 20.1734 17.25 19.875C16.9256 20.1188 16.5308 20.2504 16.125 20.25H2.625C2.32663 20.25 2.04048 20.3685 1.8295 20.5795C1.61853 20.7905 1.5 21.0766 1.5 21.375C1.5 21.6734 1.61853 21.9595 1.8295 22.1705C2.04048 22.3815 2.32663 22.5 2.625 22.5H16.125C16.4231 22.4991 16.7087 22.3803 16.9195 22.1695C17.1303 21.9587 17.2491 21.6731 17.25 21.375V21.3638C16.9279 21.6131 16.5323 21.7489 16.125 21.75H4.875C4.77554 21.75 4.68016 21.7105 4.60984 21.6402C4.53951 21.5698 4.5 21.4745 4.5 21.375C4.5 21.2755 4.53951 21.1802 4.60984 21.1098C4.68016 21.0395 4.77554 21 4.875 21ZM3.375 21.75H2.625C2.52554 21.75 2.43016 21.7105 2.35984 21.6402C2.28951 21.5698 2.25 21.4745 2.25 21.375C2.25 21.2755 2.28951 21.1802 2.35984 21.1098C2.43016 21.0395 2.52554 21 2.625 21H3.375C3.47446 21 3.56984 21.0395 3.64016 21.1098C3.71049 21.1802 3.75 21.2755 3.75 21.375C3.75 21.4745 3.71049 21.5698 3.64016 21.6402C3.56984 21.7105 3.47446 21.75 3.375 21.75Z" fill="#4B4B4B"/>
<path d="M22.5001 7.50008C22.5007 6.36039 22.1765 5.24413 21.5655 4.28205C20.9545 3.31998 20.082 2.55195 19.0502 2.06792C18.0184 1.5839 16.87 1.40392 15.7396 1.54909C14.6092 1.69426 13.5436 2.15855 12.6676 2.88758C12.6676 2.88858 12.6672 2.88953 12.6665 2.89023C12.6658 2.89094 12.6648 2.89133 12.6638 2.89133C11.9093 3.51794 11.3201 4.32019 10.948 5.22764C10.5759 6.1351 10.4322 7.12003 10.5296 8.09597C10.627 9.07191 10.9624 10.009 11.5065 10.8251C12.0506 11.6411 12.7866 12.3111 13.6501 12.7763C13.6576 12.7801 13.6613 12.7838 13.6688 12.7876C14.5827 13.2779 15.608 13.5228 16.6448 13.4984C17.6816 13.4741 18.6943 13.1812 19.5841 12.6485C20.4738 12.1158 21.2102 11.3614 21.7213 10.459C22.2324 9.55663 22.5007 8.53714 22.5001 7.50008ZM16.5001 12.7501C15.4617 12.7501 14.4467 12.4422 13.5833 11.8653C12.72 11.2884 12.0471 10.4685 11.6497 9.50917C11.2524 8.54986 11.1484 7.49426 11.351 6.47586C11.5535 5.45746 12.0535 4.522 12.7878 3.78777C13.522 3.05354 14.4575 2.55353 15.4759 2.35096C16.4943 2.14839 17.5499 2.25235 18.5092 2.64971C19.4685 3.04707 20.2884 3.71998 20.8653 4.58334C21.4422 5.4467 21.7501 6.46173 21.7501 7.50008C21.7486 8.89201 21.195 10.2265 20.2107 11.2107C19.2265 12.195 17.892 12.7486 16.5001 12.7501Z" fill="#4B4B4B"/>
<path d="M20.2504 7.50016C20.2504 7.40071 20.2899 7.30532 20.3602 7.235C20.4306 7.16467 20.526 7.12516 20.6254 7.12516H20.9813C20.9374 6.59131 20.7976 6.06973 20.5688 5.58541L20.262 5.76241C20.1759 5.81136 20.074 5.82426 19.9784 5.79832C19.8829 5.77237 19.8014 5.70968 19.7519 5.62392C19.7024 5.53817 19.6888 5.4363 19.7141 5.34057C19.7395 5.24483 19.8016 5.16299 19.887 5.11291L20.1949 4.93516C19.8884 4.49576 19.5067 4.11401 19.0673 3.80754L18.8895 4.11541C18.8566 4.17247 18.8092 4.21985 18.7521 4.25276C18.695 4.28568 18.6303 4.30298 18.5644 4.30291C18.4985 4.3031 18.4338 4.28562 18.3769 4.25229C18.2909 4.20256 18.2281 4.12072 18.2024 4.02475C18.1766 3.92877 18.1901 3.82651 18.2397 3.74041L18.4167 3.43366C17.932 3.20395 17.4099 3.06358 16.8754 3.01929V3.37516C16.8754 3.47462 16.8359 3.57 16.7656 3.64033C16.6952 3.71065 16.5999 3.75016 16.5004 3.75016C16.401 3.75016 16.3056 3.71065 16.2352 3.64033C16.1649 3.57 16.1254 3.47462 16.1254 3.37516V3.01929C15.5914 3.06375 15.0698 3.20412 14.5857 3.43366L14.7627 3.74041C14.8123 3.82651 14.8257 3.92877 14.7999 4.02475C14.7742 4.12072 14.7114 4.20256 14.6254 4.25229C14.5686 4.28562 14.5038 4.3031 14.4379 4.30291C14.372 4.30298 14.3073 4.28568 14.2502 4.25276C14.1931 4.21985 14.1457 4.17247 14.1128 4.11541L13.935 3.80754C13.4956 4.11401 13.1139 4.49576 12.8074 4.93516L13.1153 5.11291C13.1583 5.13736 13.196 5.17006 13.2263 5.20915C13.2566 5.24823 13.2789 5.29293 13.2918 5.34065C13.3048 5.38838 13.3082 5.4382 13.3018 5.48724C13.2954 5.53628 13.2794 5.58358 13.2547 5.62641C13.23 5.66924 13.197 5.70675 13.1577 5.73679C13.1184 5.76684 13.0736 5.78881 13.0258 5.80145C12.978 5.81409 12.9281 5.81715 12.8791 5.81045C12.8301 5.80375 12.7829 5.78742 12.7403 5.76241L12.4335 5.58541C12.2042 6.06963 12.0639 6.59121 12.0195 7.12516H12.3754C12.4749 7.12516 12.5702 7.16467 12.6406 7.235C12.7109 7.30532 12.7504 7.40071 12.7504 7.50016C12.7504 7.59962 12.7109 7.695 12.6406 7.76533C12.5702 7.83565 12.4749 7.87516 12.3754 7.87516H12.0195C12.0635 8.40902 12.2032 8.9306 12.432 9.41491L12.7388 9.23791C12.7814 9.2129 12.8286 9.19658 12.8776 9.18988C12.9266 9.18318 12.9765 9.18623 13.0243 9.19888C13.0721 9.21152 13.1169 9.23349 13.1562 9.26353C13.1955 9.29357 13.2285 9.33109 13.2532 9.37391C13.2779 9.41674 13.2939 9.46404 13.3003 9.51308C13.3067 9.56213 13.3033 9.61194 13.2903 9.65967C13.2774 9.7074 13.2551 9.75209 13.2248 9.79118C13.1945 9.83026 13.1568 9.86297 13.1138 9.88741L12.8059 10.0652C13.1124 10.5046 13.4941 10.8863 13.9335 11.1928L14.1113 10.8849C14.1614 10.7995 14.2432 10.7373 14.3389 10.712C14.4347 10.6867 14.5365 10.7003 14.6223 10.7498C14.7081 10.7993 14.7707 10.8807 14.7967 10.9763C14.8226 11.0719 14.8097 11.1738 14.7608 11.2599L14.5838 11.5667C15.0685 11.7964 15.5908 11.9368 16.1254 11.981V11.6252C16.1254 11.5257 16.1649 11.4303 16.2352 11.36C16.3056 11.2897 16.401 11.2502 16.5004 11.2502C16.5999 11.2502 16.6952 11.2897 16.7656 11.36C16.8359 11.4303 16.8754 11.5257 16.8754 11.6252V11.981C17.4094 11.9366 17.931 11.7962 18.4152 11.5667L18.2382 11.2599C18.1892 11.1738 18.1763 11.0719 18.2023 10.9763C18.2282 10.8807 18.2909 10.7993 18.3766 10.7498C18.4624 10.7003 18.5643 10.6867 18.66 10.712C18.7557 10.7373 18.8376 10.7995 18.8877 10.8849L19.0654 11.1928C19.5048 10.8863 19.8866 10.5046 20.193 10.0652L19.8852 9.88741C19.7997 9.83733 19.7376 9.75549 19.7123 9.65976C19.687 9.56402 19.7005 9.46216 19.7501 9.3764C19.7996 9.29064 19.881 9.22795 19.9766 9.20201C20.0721 9.17606 20.1741 9.18897 20.2602 9.23791L20.5669 9.41491C20.7964 8.93072 20.9368 8.40914 20.9813 7.87516H20.6254C20.526 7.87516 20.4306 7.83565 20.3602 7.76533C20.2899 7.695 20.2504 7.59962 20.2504 7.50016ZM16.5004 8.25016C16.3693 8.24977 16.2407 8.21491 16.1273 8.14909C16.014 8.08327 15.92 7.9888 15.8547 7.87516H14.6254C14.526 7.87516 14.4306 7.83565 14.3602 7.76533C14.2899 7.695 14.2504 7.59962 14.2504 7.50016C14.2504 7.40071 14.2899 7.30532 14.3602 7.235C14.4306 7.16467 14.526 7.12516 14.6254 7.12516H15.8547C15.9202 7.01316 16.0134 6.91992 16.1254 6.85441V4.87516C16.1254 4.77571 16.1649 4.68032 16.2352 4.61C16.3056 4.53967 16.401 4.50016 16.5004 4.50016C16.5999 4.50016 16.6952 4.53967 16.7656 4.61C16.8359 4.68032 16.8754 4.77571 16.8754 4.87516V6.85441C17.0183 6.93667 17.1299 7.06382 17.193 7.2161C17.2562 7.36837 17.2672 7.53724 17.2244 7.69643C17.1817 7.85563 17.0875 7.99623 16.9565 8.09637C16.8256 8.19651 16.6652 8.25058 16.5004 8.25016Z" fill="#4B4B4B"/>
<path d="M17.25 14.205C17.0011 14.2352 16.7507 14.2502 16.5 14.25C15.4286 14.2496 14.3728 13.9924 13.4213 13.5H4.125C4.02554 13.5 3.93016 13.4605 3.85984 13.3902C3.78951 13.3198 3.75 13.2245 3.75 13.125V9.375C3.75 9.27554 3.78951 9.18016 3.85984 9.10983C3.93016 9.03951 4.02554 9 4.125 9H9.9225C9.80959 8.50794 9.75173 8.00485 9.75 7.5C9.75116 5.83737 10.3684 4.23415 11.4825 3H7.125V7.125C7.12528 7.19918 7.10327 7.27174 7.06181 7.33326C7.02035 7.39478 6.96136 7.44242 6.8925 7.47C6.848 7.49102 6.79919 7.5013 6.75 7.5C6.65038 7.50029 6.55468 7.4612 6.48375 7.39125L5.25 6.15375L4.01625 7.39125C3.96352 7.44328 3.89655 7.47853 3.82381 7.49255C3.75106 7.50656 3.67579 7.49872 3.6075 7.47C3.53864 7.44242 3.47965 7.39478 3.43819 7.33326C3.39673 7.27174 3.37472 7.19918 3.375 7.125V3H2.625C2.32691 3.00089 2.04127 3.1197 1.83049 3.33049C1.6197 3.54127 1.50089 3.82691 1.5 4.125V19.8862C1.82213 19.6369 2.21766 19.5011 2.625 19.5H16.125C16.4231 19.4991 16.7087 19.3803 16.9195 19.1695C17.1303 18.9587 17.2491 18.6731 17.25 18.375V14.205ZM4.125 14.25H13.125C13.2245 14.25 13.3198 14.2895 13.3902 14.3598C13.4605 14.4302 13.5 14.5255 13.5 14.625C13.5 14.7245 13.4605 14.8198 13.3902 14.8902C13.3198 14.9605 13.2245 15 13.125 15H4.125C4.02554 15 3.93016 14.9605 3.85984 14.8902C3.78951 14.8198 3.75 14.7245 3.75 14.625C3.75 14.5255 3.78951 14.4302 3.85984 14.3598C3.93016 14.2895 4.02554 14.25 4.125 14.25ZM3.75 16.125C3.75 16.0255 3.78951 15.9302 3.85984 15.8598C3.93016 15.7895 4.02554 15.75 4.125 15.75H14.625C14.7245 15.75 14.8198 15.7895 14.8902 15.8598C14.9605 15.9302 15 16.0255 15 16.125C15 16.2245 14.9605 16.3198 14.8902 16.3902C14.8198 16.4605 14.7245 16.5 14.625 16.5H4.125C4.02554 16.5 3.93016 16.4605 3.85984 16.3902C3.78951 16.3198 3.75 16.2245 3.75 16.125ZM16.5 17.625C16.5 17.9234 16.3815 18.2095 16.1705 18.4205C15.9595 18.6315 15.6734 18.75 15.375 18.75H14.25C14.1505 18.75 14.0552 18.7105 13.9848 18.6402C13.9145 18.5698 13.875 18.4745 13.875 18.375C13.875 18.2755 13.9145 18.1802 13.9848 18.1098C14.0552 18.0395 14.1505 18 14.25 18H15.375C15.4745 18 15.5698 17.9605 15.6402 17.8902C15.7105 17.8198 15.75 17.7245 15.75 17.625V16.5C15.75 16.4005 15.7895 16.3052 15.8598 16.2348C15.9302 16.1645 16.0255 16.125 16.125 16.125C16.2245 16.125 16.3198 16.1645 16.3902 16.2348C16.4605 16.3052 16.5 16.4005 16.5 16.5V17.625Z" fill="#4B4B4B"/>
<path d="M4.5 12.75H12.2662C11.2952 11.9653 10.5605 10.9269 10.1437 9.75H4.5V12.75Z" fill="#4B4B4B"/>
<path d="M4.98375 5.35875C5.05484 5.28903 5.15043 5.24998 5.25 5.24998C5.34957 5.24998 5.44516 5.28903 5.51625 5.35875L6.375 6.22125V3H4.125V6.22125L4.98375 5.35875Z" fill="#4B4B4B"/>
</svg>
