<svg width="24" height="24" viewBox="0 0 24 24" fill="none" xmlns="http://www.w3.org/2000/svg">
<g clip-path="url(#clip0_6234_6385)">
<path d="M1.66797 7.28418H6.06105V8.69043H1.66797V7.28418Z" fill="#4B4B4B"/>
<path d="M1.66797 15.3093H6.06105V16.7156H1.66797V15.3093Z" fill="#4B4B4B"/>
<path d="M0 11.2969H6.06094V12.7031H0V11.2969Z" fill="#4B4B4B"/>
<path d="M16.0158 4.01538C11.6131 4.01538 8.03125 7.59724 8.03125 11.9999C8.03125 16.4026 11.6131 19.9845 16.0158 19.9845C20.4185 19.9845 24.0003 16.4026 24.0003 11.9999C24.0003 7.59724 20.4185 4.01538 16.0158 4.01538ZM16.0158 11.2968C17.2273 11.2968 18.2129 12.2824 18.2129 13.4939C18.2129 14.4595 17.5865 15.2809 16.7189 15.5749V16.7177H15.3127V15.5749C14.4451 15.2809 13.8187 14.4595 13.8187 13.4939H15.225C15.225 13.93 15.5797 14.2847 16.0158 14.2847C16.4519 14.2847 16.8066 13.93 16.8066 13.4939C16.8066 13.0578 16.4519 12.7031 16.0158 12.7031C14.8043 12.7031 13.8187 11.7175 13.8187 10.506C13.8187 9.5404 14.4451 8.71891 15.3127 8.42496V7.28219H16.7189V8.42496C17.5865 8.71891 18.2129 9.5404 18.2129 10.506H16.8066C16.8066 10.0699 16.4519 9.71515 16.0158 9.71515C15.5797 9.71515 15.225 10.0699 15.225 10.506C15.225 10.9421 15.5797 11.2968 16.0158 11.2968Z" fill="#4B4B4B"/>
</g>
<defs>
<clipPath id="clip0_6234_6385">
<rect width="24" height="24" fill="white"/>
</clipPath>
</defs>
</svg>
