<svg width="24" height="24" viewBox="0 0 24 24" fill="none" xmlns="http://www.w3.org/2000/svg">
<g clip-path="url(#clip0_6229_1388)">
<path d="M3 0.75C1.75736 0.75 0.75 1.75736 0.75 3V6.75C0.75 7.99264 1.75736 9 3 9H9C10.2426 9 11.25 7.99264 11.25 6.75V3C11.25 1.75736 10.2426 0.75 9 0.75H3Z" fill="white"/>
<path d="M15 23.25C13.7574 23.25 12.75 22.2426 12.75 21V17.25C12.75 16.0074 13.7574 15 15 15H21C22.2426 15 23.25 16.0074 23.25 17.25V21C23.25 22.2426 22.2426 23.25 21 23.25H15Z" fill="white"/>
<path d="M3 10.5C1.75736 10.5 0.75 11.5074 0.75 12.75V21C0.75 22.2426 1.75736 23.25 3 23.25H9C10.2426 23.25 11.25 22.2426 11.25 21V12.75C11.25 11.5074 10.2426 10.5 9 10.5H3Z" fill="white"/>
<path d="M15 13.5C13.7574 13.5 12.75 12.4926 12.75 11.25V3C12.75 1.75736 13.7574 0.75 15 0.75H21C22.2426 0.75 23.25 1.75736 23.25 3V11.25C23.25 12.4926 22.2426 13.5 21 13.5H15Z" fill="white"/>
</g>
<defs>
<clipPath id="clip0_6229_1388">
<rect width="24" height="24" fill="white"/>
</clipPath>
</defs>
</svg>
