<svg width="17" height="16" viewBox="0 0 17 16" fill="none" xmlns="http://www.w3.org/2000/svg">
<g clip-path="url(#clip0_6237_847)">
<path d="M14.8249 15.2661H2.17514C1.57872 15.2668 1.02696 14.9499 0.726979 14.4344C0.427133 13.919 0.424137 13.2828 0.719353 12.7646L7.04702 1.64862C7.34346 1.12519 7.89849 0.801514 8.49995 0.801514C9.10155 0.801514 9.65658 1.12519 9.95288 1.64862L16.2805 12.7646C16.5758 13.2828 16.5729 13.919 16.2729 14.4344C15.9729 14.9499 15.4213 15.2668 14.8249 15.2661Z" fill="white"/>
<path d="M10.1738 6.3418H7.38503L6.26953 10.2461H8.22166L7.66391 13.0348L10.7315 9.13055H9.05829L10.1738 6.3418Z" fill="#0C9D61"/>
</g>
<defs>
<clipPath id="clip0_6237_847">
<rect width="16" height="16" fill="white" transform="translate(0.5)"/>
</clipPath>
</defs>
</svg>
