<svg width="24" height="24" viewBox="0 0 24 24" fill="none" xmlns="http://www.w3.org/2000/svg">
<path fill-rule="evenodd" clip-rule="evenodd" d="M21.8059 8.25V20.25C21.8059 20.847 21.569 21.4193 21.1468 21.8408C20.7245 22.263 20.1522 22.5 19.5552 22.5H7.5516C6.95463 22.5 6.38232 22.263 5.96005 21.8408C5.53778 21.4193 5.30093 20.847 5.30093 20.25V14.901C5.6664 14.9662 6.04258 15 6.42627 15C9.9459 15 12.8032 12.1432 12.8032 8.625C12.8032 5.10675 9.9459 2.25 6.42627 2.25C6.23228 2.25 6.04043 2.259 5.8518 2.2755C6.26442 1.80075 6.87318 1.5 7.5516 1.5H15.0538V6C15.0538 6.597 15.2907 7.16925 15.713 7.59075C16.1352 8.013 16.7076 8.25 17.3045 8.25H21.8059ZM9.80228 18.75V18C9.80228 17.586 9.46575 17.25 9.05205 17.25C8.63836 17.25 8.30183 17.586 8.30183 18V18.75C8.30183 19.164 8.63836 19.5 9.05205 19.5C9.46575 19.5 9.80228 19.164 9.80228 18.75ZM12.8032 18.75V15.75C12.8032 15.336 12.4667 15 12.053 15C11.6393 15 11.3027 15.336 11.3027 15.75V18.75C11.3027 19.164 11.6393 19.5 12.053 19.5C12.4667 19.5 12.8032 19.164 12.8032 18.75ZM15.8041 18.75V16.5C15.8041 16.086 15.4675 15.75 15.0538 15.75C14.6402 15.75 14.3036 16.086 14.3036 16.5V18.75C14.3036 19.164 14.6402 19.5 15.0538 19.5C15.4675 19.5 15.8041 19.164 15.8041 18.75ZM18.805 18.75V13.5C18.805 13.086 18.4684 12.75 18.0547 12.75C17.6411 12.75 17.3045 13.086 17.3045 13.5V18.75C17.3045 19.164 17.6411 19.5 18.0547 19.5C18.4684 19.5 18.805 19.164 18.805 18.75ZM16.5543 1.51425C17.0934 1.57575 17.596 1.83075 17.9647 2.2365L21.2207 5.81625C21.464 6.08475 21.6376 6.405 21.7298 6.75H17.3045C17.1052 6.75 16.9144 6.67125 16.774 6.53025C16.6336 6.39 16.5543 6.19875 16.5543 6V1.51425ZM11.2448 9.375C10.8837 11.7098 8.86236 13.5 6.42627 13.5C3.73511 13.5 1.5498 11.3153 1.5498 8.625C1.5498 6.18975 3.34069 4.1685 5.67603 3.80775V7.875C5.67603 8.70375 6.34803 9.375 7.17649 9.375H11.2448ZM7.17649 3.80775C9.26748 4.131 10.9222 5.78475 11.2448 7.875H7.17649V3.80775Z" fill="#4B4B4B"/>
</svg>
