<svg width="24" height="24" viewBox="0 0 24 24" fill="none" xmlns="http://www.w3.org/2000/svg">
<g clip-path="url(#clip0_6234_6428)">
<path d="M15.7816 16.0664C15.8372 15.4814 15.8204 14.8986 15.7358 14.3296L17.0512 13.7434C16.9269 13.1062 16.7315 12.4777 16.4606 11.8694C16.1897 11.2616 15.8532 10.696 15.4632 10.1771L14.147 10.7629C13.7808 10.3199 13.3589 9.9178 12.8869 9.56751L13.4029 8.22329C12.8641 7.86092 12.2817 7.55464 11.6601 7.31608C11.041 7.07838 10.4051 6.91402 9.75849 6.823L9.24212 8.16851C8.65715 8.11286 8.07434 8.12968 7.50534 8.21423L6.92253 6.90539C5.62059 7.16121 4.40407 7.71339 3.35967 8.5024L3.9386 9.80261C3.4947 10.1689 3.09264 10.5912 2.74235 11.0627L1.40159 10.5485C1.03577 11.086 0.729051 11.6688 0.49006 12.29C0.253226 12.9112 0.0910235 13.5488 0 14.1912L1.34421 14.7071C1.28856 15.2921 1.30539 15.8749 1.38994 16.4439L0.0746306 17.0297C0.198871 17.6673 0.394291 18.2954 0.665205 18.9037C0.93655 19.5119 1.2726 20.0771 1.66301 20.596L2.97832 20.0102C3.34457 20.4537 3.76647 20.8557 4.23885 21.206L3.7229 22.5511C4.26171 22.9139 4.84409 23.2197 5.46572 23.4583C6.08477 23.696 6.72064 23.8603 7.36729 23.9514L7.88367 22.6059C8.46863 22.6611 9.05144 22.6443 9.62045 22.5597L10.2033 23.8681C11.5052 23.6123 12.7226 23.0601 13.7665 22.2711L13.1872 20.9709C13.6307 20.6046 14.0331 20.1827 14.3834 19.7108L15.7233 20.225C16.0892 19.6875 16.3959 19.1047 16.6349 18.4839C16.8734 17.8627 17.0352 17.2247 17.1262 16.5819L15.7816 16.0664ZM12.2084 16.7855C11.4357 18.7993 9.17741 19.8044 7.16325 19.0318C5.15167 18.2596 4.14524 16.0017 4.91742 13.9884C5.69005 11.9751 7.94838 10.97 9.96125 11.7417C11.9745 12.5139 12.9806 14.7727 12.2084 16.7855Z" fill="#4B4B4B"/>
<path d="M23.0643 5.34698C23.0643 5.08642 23.0376 4.83147 22.9919 4.58385L24 4.00148C23.7559 3.07312 23.271 2.24183 22.6079 1.58526L21.5972 2.16893C21.2115 1.83848 20.7646 1.57965 20.2758 1.40709V0.241041C19.8306 0.118958 19.3643 0.0490723 18.8816 0.0490723C18.3989 0.0490723 17.933 0.11982 17.4873 0.241041V1.40752C16.9986 1.58008 16.5521 1.83934 16.166 2.16936L15.1548 1.58569C14.4926 2.24226 14.0073 3.07355 13.7627 4.00191L14.7713 4.58428C14.7256 4.83233 14.6984 5.08642 14.6984 5.34741C14.6984 5.60841 14.7256 5.86293 14.7713 6.11055L13.7627 6.69292C14.0073 7.62128 14.4926 8.453 15.1548 9.10914L16.1655 8.52547C16.5516 8.85592 16.9981 9.11475 17.4869 9.28731V10.4538C17.9325 10.5754 18.3984 10.6458 18.8811 10.6458C19.3639 10.6458 19.8306 10.575 20.2754 10.4538V9.28731C20.7642 9.11475 21.2111 8.85549 21.5968 8.52547L22.6075 9.10914C23.2706 8.45257 23.7554 7.62128 23.9996 6.69292L22.9914 6.11055C23.0376 5.86206 23.0643 5.60798 23.0643 5.34698ZM18.882 7.29946C17.8035 7.29946 16.9291 6.42546 16.9291 5.34741C16.9291 4.26937 17.8035 3.39494 18.882 3.39494C19.9592 3.39494 20.8336 4.26894 20.8336 5.34698C20.8336 6.42503 19.9592 7.29946 18.882 7.29946Z" fill="#4B4B4B"/>
</g>
<defs>
<clipPath id="clip0_6234_6428">
<rect width="24" height="24" fill="white"/>
</clipPath>
</defs>
</svg>
