<svg width="24" height="24" viewBox="0 0 24 24" fill="none" xmlns="http://www.w3.org/2000/svg">
<g clip-path="url(#clip0_6234_6374)">
<path fill-rule="evenodd" clip-rule="evenodd" d="M13.0833 1.78692C12.4057 1.41257 11.5827 1.41257 10.9051 1.78692C9.40604 2.61677 5.92017 4.54581 3.65494 5.79933C2.97622 6.17474 2.5393 6.87361 2.49794 7.64778C2.45605 8.42247 2.81609 9.16323 3.45133 9.60864C5.64656 11.1506 9.1038 13.5781 10.7014 14.7006C11.4772 15.2452 12.5112 15.2452 13.2869 14.7006C14.8846 13.5781 18.3418 11.1506 20.537 9.60864C21.1723 9.16323 21.5323 8.42247 21.4904 7.64778C21.4491 6.87361 21.0122 6.17474 20.3334 5.79933C18.0682 4.54581 14.5823 2.61677 13.0833 1.78692Z" fill="#4B4B4B"/>
<path fill-rule="evenodd" clip-rule="evenodd" d="M2.94003 16.6308C2.94003 16.6308 8.51826 20.5483 10.7018 22.0818C11.4776 22.6264 12.5116 22.6264 13.2873 22.0818C15.4709 20.5483 21.0491 16.6308 21.0491 16.6308C21.388 16.3927 21.4696 15.9251 21.2315 15.5862C20.994 15.2479 20.5258 15.1658 20.1875 15.4033C20.1875 15.4033 14.6092 19.3208 12.4257 20.8543C12.1669 21.0356 11.8222 21.0356 11.5635 20.8543L3.80169 15.4033C3.46339 15.1658 2.99518 15.2479 2.75762 15.5862C2.51954 15.9251 2.6012 16.3928 2.94003 16.6308Z" fill="#4B4B4B"/>
<path fill-rule="evenodd" clip-rule="evenodd" d="M2.94003 12.8874C2.94003 12.8874 8.51826 16.8049 10.7018 18.3384C11.4776 18.883 12.5116 18.883 13.2873 18.3384C15.4709 16.8049 21.0491 12.8874 21.0491 12.8874C21.388 12.6493 21.4696 12.1817 21.2315 11.8428C20.994 11.5045 20.5258 11.4223 20.1875 11.6599C20.1875 11.6599 14.6092 15.5774 12.4257 17.1109C12.1669 17.2922 11.8222 17.2922 11.5635 17.1109L3.80169 11.6599C3.46339 11.4223 2.99518 11.5045 2.75762 11.8428C2.51954 12.1817 2.6012 12.6493 2.94003 12.8874Z" fill="#4B4B4B"/>
</g>
<defs>
<clipPath id="clip0_6234_6374">
<rect width="24" height="24" fill="white"/>
</clipPath>
</defs>
</svg>
